<svg width="100" height="100" viewBox="0 0 100 100" fill="none" xmlns="http://www.w3.org/2000/svg">
<g clip-path="url(#clip0_5_842)">
<path d="M100 88.8889C100 91.8357 98.8294 94.6619 96.7456 96.7456C94.6619 98.8294 91.8357 100 88.8889 100H11.1111C8.16426 100 5.33811 98.8294 3.25437 96.7456C1.17063 94.6619 0 91.8357 0 88.8889V11.1111C0 8.16426 1.17063 5.33811 3.25437 3.25437C5.33811 1.17063 8.16426 0 11.1111 0L88.8889 0C91.8357 0 94.6619 1.17063 96.7456 3.25437C98.8294 5.33811 100 8.16426 100 11.1111V88.8889Z" fill="#88C9F9"/>
<path d="M53.725 98.4861C52.7283 99.4562 51.3923 99.9989 50.0014 99.9989C48.6105 99.9989 47.2745 99.4562 46.2778 98.4861L27.8528 80.35C25.8056 78.3333 25.2639 74.7055 26.6472 72.2833L47.4806 21.0416C48.8667 18.6222 51.1334 18.6222 52.5167 21.0416L73.35 72.2833C74.7334 74.7027 74.1917 78.3333 72.1445 80.3472L53.725 98.4861Z" fill="#737373"/>
<path d="M50 40.7444C52.6361 40.7444 55.5667 38.1 58.0528 34.6583L52.5167 21.0416C51.1306 18.6222 48.8639 18.6222 47.4806 21.0416L41.9445 34.6583C44.4361 38.1 47.3639 40.7444 50 40.7444Z" fill="#4F4F4F"/>
<path d="M63.8889 16.05C63.8889 21.5056 56.1361 35.8056 50 35.8056C43.8639 35.8056 36.1111 21.5056 36.1111 16.05C36.1111 11.0973 43.8639 8.33337 50 8.33337C56.1361 8.33337 63.8889 11.0973 63.8889 16.05Z" fill="#737373"/>
<path d="M0 11.1111V17.3722C5.76111 25.0667 18.8306 38.9028 22.2222 38.9028C28.3583 38.9028 52.7778 8.91389 52.7778 2.77778C52.7778 0 50 0 47.2222 0H11.1111C8.16426 0 5.33811 1.17063 3.25437 3.25437C1.17063 5.33811 0 8.16426 0 11.1111H0Z" fill="#4CA0D3"/>
<path d="M47.2222 2.77778C47.2222 8.91389 71.6416 38.9028 77.7777 38.9028C81.1694 38.9028 94.2388 25.0667 99.9999 17.3722V11.1111C99.9999 8.16426 98.8293 5.33811 96.7456 3.25437C94.6618 1.17063 91.8357 0 88.8888 0L52.7777 0C49.9999 0 47.2222 0 47.2222 2.77778Z" fill="#4CA0D3"/>
<path d="M11.1111 0C10.3694 0 9.64995 0.0805556 8.94995 0.219444C12.2361 4.82222 29.3388 8.33333 50 8.33333C70.6611 8.33333 87.7638 4.82222 91.05 0.219444C90.3385 0.0756387 89.6147 0.00213694 88.8888 0L11.1111 0Z" fill="#226699"/>
</g>
<defs>
<clipPath id="clip0_5_842">
<rect width="100" height="100" fill="white"/>
</clipPath>
</defs>
</svg>
