<svg width="100" height="100" viewBox="0 0 100 100" fill="none" xmlns="http://www.w3.org/2000/svg">
<g clip-path="url(#clip0_5_850)">
<path d="M74.4031 67.8594C74.4031 76.0516 57.75 82.7 37.2031 82.7C16.6594 82.7 0 76.0516 0 67.8594C0 59.6563 16.6594 53.0125 37.2031 53.0125C57.75 53.0125 74.4031 59.6563 74.4031 67.8594Z" fill="#A6A8AB"/>
<path d="M62.2219 84.9438C82.7668 84.9438 99.4219 78.2994 99.4219 70.1031C99.4219 61.9069 82.7668 55.2625 62.2219 55.2625C41.6769 55.2625 25.0219 61.9069 25.0219 70.1031C25.0219 78.2994 41.6769 84.9438 62.2219 84.9438Z" fill="#A6A8AB"/>
<path d="M51.0578 79.8594C35.3234 79.8594 21.214 76.4281 11.6515 71C11.5562 71.7328 11.4984 72.4734 11.4984 73.225C11.4984 87.3969 28.9344 98.8859 50.4406 98.8859C71.95 98.8859 89.3859 87.3953 89.3859 73.225C89.3859 72.6844 89.3547 72.1531 89.3 71.6234C79.7828 76.6875 66.1687 79.8594 51.0547 79.8594" fill="#D0D2D3"/>
<path d="M31.0422 77.8984C23.5344 76.3578 16.9016 73.9859 11.6547 71.0047C11.5594 71.7375 11.5016 72.4781 11.5016 73.2297C11.5016 87.4016 28.9375 98.8906 50.4438 98.8906C52.1391 98.8906 53.8047 98.8094 55.4469 98.6719C42.3875 95.2844 32.7813 87.3969 31.0422 77.8984Z" fill="#B6B6B7"/>
<path d="M93.9374 60.8406C93.9374 70.4203 74.4625 78.1844 50.4531 78.1844C26.4359 78.1844 6.96558 70.4094 6.96558 60.8406C6.96558 51.2578 26.4359 43.4813 50.4531 43.4813C74.4625 43.4813 93.9374 51.2516 93.9374 60.8406Z" fill="#D0D2D3"/>
<path d="M50.1407 75.014C70.6865 75.014 87.3422 68.3676 87.3422 60.1687C87.3422 51.9699 70.6865 45.3234 50.1407 45.3234C29.5948 45.3234 12.9391 51.9699 12.9391 60.1687C12.9391 68.3676 29.5948 75.014 50.1407 75.014Z" fill="#A6A8AB"/>
<path d="M21.5 48.3578C18.8063 50.7375 15.9828 52.9422 13.1891 55.2016C10.7031 57.2047 13.8781 60.886 16.4844 59.4657C18.9156 58.1485 21.3281 56.8563 23.9016 55.8344C22.8781 54.5 21.85 53.1703 20.8281 51.836C20.1537 52.9292 19.3979 53.9702 18.5672 54.95C16.7781 57.2032 19.0578 61.0141 21.8625 59.2172C23.7188 58.0328 25.5453 56.8485 27.4813 55.7985L23.7641 52.0844C23.1 53.1938 22.5813 54.3203 22.0516 55.5032C21.0594 57.6969 23.3109 60.9922 25.7688 59.2203C27.7656 57.786 29.6547 56.3235 31.45 54.6391C33.8625 52.3907 30.8125 49.1703 28.1578 50.3719C28.0078 50.5344 27.8672 50.6969 27.7234 50.861C27.3984 52.1032 27.0719 53.3422 26.75 54.5782C27.824 53.8987 29.0085 53.4122 30.25 53.1407C32.9172 52.3688 32.7734 48.7407 30.25 47.9016C30.0047 47.8188 29.7625 47.736 29.5188 47.6563V52.8985C30.7313 52.4407 31.9156 52.1719 33.1875 51.9219C32.4859 50.2641 31.7906 48.6047 31.0906 46.9516C26.6828 49.1297 12.7141 52.6172 17.6563 60.2016C18.4344 58.8313 19.2188 57.4735 20.0031 56.1078C19.5109 56.0594 19.0203 56.011 18.5281 55.9594C15.5 55.3188 13.7938 59.2313 16.4328 60.9313C17.3547 61.5922 18.3313 62.1657 19.3609 62.6438C19.8203 60.9532 20.2766 59.2657 20.7328 57.575C19.5906 57.6485 18.4547 57.7282 17.3156 57.8203C13.7969 58.0875 13.8359 62.936 17.3156 63.2563C20.9078 63.5828 25.5813 64.5594 28.9359 62.7032C30.0031 62.1063 30.6016 61.5813 31.3984 60.7032C31.9594 60.0828 32.55 59.4969 33.15 58.9157C35.875 56.286 32.4219 59.6875 32.4328 57.6047L36.525 55.2594C36.1141 55.0157 35.7078 54.7672 35.3 54.525C34.8406 56.2125 34.3875 57.9 33.925 59.5907C34.8563 59.9578 35.7812 60.3235 36.7078 60.6828L38.0828 55.6172C36.6211 55.4469 35.1445 55.4469 33.6828 55.6172C31.6094 55.85 30.3281 57.7422 31.3344 59.7094C33.1203 63.1922 37.1859 64.5407 40.7875 65.3516C44.2016 66.1328 45.6469 60.8907 42.2328 60.111C40.1047 59.6282 37.1375 59.1125 36.0422 56.9703C35.2547 58.3282 34.4797 59.6922 33.6906 61.0578C35.1526 60.8922 36.6286 60.8922 38.0906 61.0578C40.9484 61.3766 41.5641 57.3141 39.4625 55.9907C37.6375 54.8469 36.0641 54.3922 33.9312 54.1547C31.1172 53.8391 30.4078 57.925 32.5625 59.2157L33.7844 59.9516C35.5703 61.0266 37.8609 59.6438 37.8734 57.6032C37.9047 53.4422 34.9219 51.1844 31.1797 53.5453C29.6297 54.5282 28.3438 55.9844 27.1313 57.3328C25.2438 59.425 19.8219 58.0438 17.3234 57.8188V63.2547C18.462 63.1685 19.6011 63.0893 20.7406 63.0172C23.2672 62.8469 24.675 59.2813 22.1156 57.95C21.0872 57.4729 20.1063 56.8995 19.1859 56.2375C18.4844 57.8969 17.7859 59.55 17.0953 61.2078C18.0545 61.4158 19.0313 61.5314 20.0125 61.5532C22.0094 61.5969 23.4797 59.1782 22.3563 57.4578C21.6734 56.4047 32.5422 52.2907 33.8469 51.65C36.7625 50.2141 34.6156 46.1141 31.7484 46.6813C30.4844 46.9297 29.3 47.2047 28.0828 47.6578C25.5766 48.5985 25.4281 52.0141 28.0828 52.9C28.3313 52.9813 28.5719 53.0641 28.8172 53.1407V47.9016C27.0547 48.4203 25.5531 48.8844 24.0125 49.8828C22.8938 50.6141 22.1047 52.3907 23.0391 53.6032C25.2891 56.5328 27.6406 56.5547 30.9141 55.0672C29.8141 53.6485 28.7141 52.2235 27.6188 50.8C26.1736 52.1406 24.6433 53.3865 23.0375 54.5297L26.7578 58.25C27.2906 57.0688 27.8016 55.9391 28.4703 54.8297C29.9094 52.4313 27.0953 49.8375 24.7469 51.1094C22.8109 52.1625 20.9859 53.35 19.1313 54.5297L22.4203 58.7969C23.5109 57.4188 24.5703 56.0485 25.5375 54.5813C26.7781 52.6985 24.6984 49.6985 22.4641 50.5891C19.4516 51.7922 16.6 53.2266 13.7516 54.7672C14.8484 56.1953 15.95 57.6219 17.05 59.0438C19.8391 56.7907 22.6625 54.5782 25.3547 52.2016C27.9875 49.8797 24.1266 46.0547 21.5078 48.361" fill="#00A551"/>
<path d="M28.8313 62.9532C30.4907 64.7875 32.5063 65.4766 34.9125 65.85C35.1532 64.0704 35.3938 62.2891 35.6375 60.5094C35.1225 60.4902 34.6181 60.3568 34.161 60.1188C33.9157 61.9016 33.6797 63.6813 33.4391 65.4657C36.7797 65.4672 43.0032 65.8407 44.0438 61.4563C45.2891 56.2141 41.3891 51.9407 36.85 50.1063L36.1235 55.4453H36.6141C39.8157 55.4453 40.1344 51.1157 37.336 50.1063C35.7125 49.5188 34.1547 48.9672 32.6172 48.1828C32.1579 49.8672 31.7047 51.5579 31.2422 53.25C32.7641 53.3282 38.9032 54.8797 38.3969 57.1313C38.1047 58.4188 38.6047 59.4547 39.6422 60.2047C43.0344 62.6375 46.3813 65.4328 50.5532 66.3422C53.6407 67.0172 55.1875 63.1219 52.6485 61.3735C52.1504 61.0338 51.6013 60.7758 51.0219 60.6094V65.85L52.7329 65.361C56.0938 64.4032 54.6594 59.1516 51.2844 60.1203C50.7172 60.2875 50.1454 60.4532 49.5719 60.6094C46.9375 61.3641 47.0329 65.0532 49.5719 65.85C49.6844 65.9235 49.7954 65.9969 49.9016 66.0703C50.6 64.4094 51.3016 62.7563 51.9985 61.0985C48.3344 60.2938 45.3672 57.6469 42.3907 55.511L43.6375 58.5828C45.1563 51.8266 36.7719 48.1063 31.2407 47.8094C28.5735 47.6688 27.4766 51.6594 29.8688 52.8782C31.8219 53.8672 33.8407 54.6047 35.8954 55.3485C36.1344 53.5672 36.3735 51.7891 36.6188 50.0047H36.1282C32.8516 50.0047 32.7016 54.2578 35.4063 55.3485C36.5579 55.8141 40.6172 59.2594 37.9844 59.9016C36.5735 60.2485 34.886 60.0344 33.4438 60.025C30.1454 60.0235 30.0422 64.2594 32.7188 65.361C33.6625 65.7547 34.6329 65.85 35.6438 65.9485C38.6813 66.2532 39.386 61.0813 36.3657 60.6094C34.911 60.3813 33.7547 60.2969 32.6782 59.1141C30.3219 56.5078 26.486 60.3625 28.8375 62.9532" fill="#00A551"/>
<path d="M81.5313 60.9094C79.1969 61.9157 76.8563 62.8907 74.5563 63.9735C72.1375 65.1172 73.2797 69.2469 75.9282 69.0422C78.5407 68.8344 81.0485 68.2672 83.625 67.8219L80.9813 63.286C77.7047 66.175 71.3813 65.5485 67.2891 65.5547C64.2797 65.5578 63.4953 70.2735 66.5625 70.8953C69.3703 71.4594 71.8891 71.4094 74.6985 70.8953C77.2906 70.4157 77.3235 66.0985 74.6985 65.6532C69.525 64.7703 64.4547 65.2532 59.2453 65.5157C53.6578 65.8063 48.0547 64.8313 42.4672 64.7188C38.9094 64.6516 39.0438 69.8297 42.4672 70.1547C45.5688 70.45 48.4828 70.5328 51.5531 70.0594C54.1516 69.6625 54.1766 65.186 51.5531 64.8188C45.8297 64.0094 36.8485 62.5532 32.1813 66.9094C33.2781 66.7657 34.3766 66.6282 35.4781 66.4828C32.7922 65.3438 30.3766 63.9938 27.4125 63.886C25.5016 63.8157 23.8141 66.3125 25.0672 67.9735C25.6219 68.7203 26.1828 69.4594 26.7328 70.2032C27.9766 68.9641 29.2156 67.7282 30.4531 66.4828C26.4141 64.2891 22.9875 61.7797 18.211 61.9297C15.5703 62.0157 14.4156 65.6297 16.8391 66.9953C25.7594 72.0344 36.4063 74.7391 46.6516 74.6203C50.1672 74.5766 50.1453 69.3141 46.6516 69.1844C44.7875 69.1078 42.9344 68.9735 41.0688 68.9032C38.0375 68.7844 37.3203 73.6578 40.35 74.2438C48.5813 75.8375 56.7047 75.1875 64.9391 73.9672C68.0406 73.5047 67.1938 68.6235 64.2188 68.6235H61.9828V74.0594C65.4516 74.05 69.3797 74.1782 72.5266 72.4453C73.7156 71.7922 80.1578 65.3188 80.6891 65.6063C81.9985 66.3078 83.6422 65.9407 84.4094 64.6297C85.0657 63.5063 85.7735 62.4375 86.3594 61.2782H81.6719C82.3922 62.1063 82.95 63.0391 83.3438 64.0672C84.7656 62.9688 86.1922 61.8735 87.6141 60.775C85.7391 58.4672 83.5875 57.2266 80.8406 56.1719C79.6563 55.7188 78.4 56.4782 77.7672 57.4203C77.2844 58.0141 76.9188 58.661 76.65 59.375C78.075 59.1922 79.4953 59.0063 80.9172 58.8219C78.9672 57.1188 77.5641 55.0532 75.35 53.6578C73.1203 52.2594 70.0281 55.1172 71.6297 57.375C72.211 58.1969 72.7531 58.8703 73.4516 59.6C74.3313 58.0891 75.2125 56.5719 76.0969 55.0594C73.475 54.486 71.0953 53.661 68.3969 53.5703C66.6719 53.5063 65.2563 55.3594 65.775 57.0063C66.0719 58.0563 66.4438 59.0813 66.8891 60.0782L68.7906 56.7282C68.1078 56.9813 67.6031 57.2563 67.0375 57.7078C66.0813 58.4719 66.0688 60.0203 66.6094 61C67.0375 61.7172 67.4094 62.4625 67.725 63.2344C68.7469 61.9 69.7766 60.5703 70.7938 59.2391C67.7016 58.7047 65.5266 55.3641 63.2625 53.3891C61.061 51.475 58.6969 50.5828 55.8547 50.2172C52.7297 49.8203 52.2906 54.7344 55.1328 55.5563C58.8688 56.6375 62.5766 56.9969 66.4531 57.0485C70 57.1 69.9 51.875 66.4531 51.611C60.9156 51.1891 59.7953 54.4735 56.4438 57.986L61.0828 59.9078C60.8641 57.8266 65.1094 56.6407 66.4985 56.1578C69.9469 54.9407 72.7391 55.511 75.9516 57.236C79.0438 58.8922 81.786 54.1985 78.6969 52.5328C73.6078 49.8016 69.3281 49.3922 63.9141 51.3032C60.2078 52.6078 55.1578 55.2703 55.6485 59.8985C55.8828 62.1063 58.5047 63.6875 60.2875 61.8188C62.3156 59.6969 63.0438 56.7766 66.4547 57.036V51.5985C63.0641 51.5547 59.8469 51.25 56.5797 50.3047L55.8563 55.6453C61.4844 56.3641 63.6531 63.4891 69.3578 64.4703C71.8016 64.8891 73.4563 62.7282 72.4282 60.4719C72.1155 59.7018 71.743 58.9573 71.3141 58.2453C71.1688 59.3391 71.0281 60.4375 70.8891 61.536C70.6703 61.6766 70.461 61.8172 70.25 61.9563C71.511 61.4969 72.7328 60.0672 72.1453 58.6125C71.6935 57.6201 71.321 56.5935 71.0313 55.5422C70.1547 56.686 69.2844 57.8375 68.4063 58.9828C70.5719 59.061 72.5688 59.825 74.6531 60.2782C77.2906 60.8563 79.2407 57.7641 77.2985 55.7375C76.975 55.3688 76.6547 54.9907 76.3344 54.6125C75.0891 55.8532 73.8531 57.0938 72.611 58.3344C74.3719 59.436 75.5266 61.2922 77.0782 62.65C78.286 63.7032 80.5625 63.7907 81.3438 62.1C81.6125 61.3907 81.9844 60.7375 82.4641 60.1469C81.4422 60.5688 80.4156 60.9797 79.3938 61.4016C81.3141 62.1344 82.4922 63.0313 83.7719 64.6C85.8297 67.136 89.311 63.9125 88.0375 61.3063C87.6471 60.2868 87.0807 59.3439 86.3641 58.5203C85.2532 56.9953 82.686 56.5375 81.6766 58.5203C81.0844 59.6782 80.386 60.75 79.7266 61.8735C80.9625 61.5438 82.2078 61.2235 83.4469 60.8969C80.4063 59.261 77.9875 59.8953 75.5875 62.2907C73.9094 63.9547 72.9063 65.7219 70.9125 67.1297C68.3938 68.9 64.9219 68.6047 62.0031 68.611C58.5 68.6172 58.5 74.0469 62.0031 74.0469H64.2375L63.5141 68.7094C56.2938 69.7782 49.0375 70.3782 41.8172 68.9844C41.5719 70.7625 41.3328 72.5453 41.0875 74.3219C42.9531 74.3985 44.8047 74.5328 46.6703 74.6078V69.1719C37.3797 69.275 27.6938 66.8594 19.5969 62.2907C19.1438 63.9844 18.6844 65.6703 18.2281 67.3563C21.9313 67.2422 24.6375 69.486 27.7297 71.1703C29.9281 72.3641 33.1875 69.7703 31.4469 67.4485C30.8922 66.7016 30.336 65.961 29.775 65.2141C28.9906 66.5797 28.2125 67.9438 27.4297 69.3047C29.3625 69.375 31.0188 70.4313 32.7485 71.1657C33.9235 71.6641 35.0547 71.6578 36.0406 70.7422C38.8063 68.1641 46.7188 69.5703 50.1344 70.0469V64.8063C47.575 65.1907 45.0516 64.9469 42.4906 64.7063V70.1422C47.5219 70.2407 52.5172 70.886 57.5516 70.9782C62.825 71.0782 68.0125 69.9828 73.2703 70.8828V65.6407C71.5483 66.0703 69.7471 66.0703 68.025 65.6407L67.3047 70.9782C73.1203 70.9719 80.2125 71.2016 84.8391 67.1141C87.0844 65.1453 84.6297 62.1563 82.1985 62.5735C80.111 62.925 78.0672 63.425 75.9485 63.5922C76.4031 65.2828 76.8641 66.9641 77.3219 68.6547C79.6172 67.5766 81.961 66.5953 84.2922 65.5938C87.5 64.2078 84.725 59.5266 81.5485 60.9063" fill="#F6921E"/>
<path d="M47.1875 75.125C50.6172 75.2969 54.0438 75.2969 57.4735 75.125C60.3704 74.9735 61.3719 70.225 58.1985 69.7828C54.2672 69.236 50.3875 69.4735 46.4407 69.4953C46.6797 71.2797 46.925 73.0532 47.1641 74.836C49.9938 74.4219 52.6641 74.0703 55.2938 72.8797C58.486 71.4297 55.7172 66.7516 52.55 68.1922C50.4407 69.1453 47.9813 69.2703 45.7172 69.5985C42.625 70.0547 43.4485 74.961 46.4391 74.9438C49.8594 74.9141 53.3532 74.5563 56.7563 75.0282C56.9938 73.2485 57.2344 71.4703 57.475 69.6875C54.0487 69.8641 50.6155 69.8641 47.1891 69.6875C43.6813 69.511 43.7 74.9532 47.1891 75.1313" fill="#A87C4F"/>
<path d="M72.6406 59.3109C68.2063 60.639 63.7734 61.4343 59.1469 61.6437C56.2391 61.775 55.2625 66.5562 58.4234 66.9843C59.2809 67.1109 60.1496 67.1434 61.0141 67.0812C63.8984 66.8859 64.9391 62.2562 61.7437 61.7469C61.5378 61.7111 61.3316 61.6772 61.125 61.6453C61.7562 62.275 62.3953 62.9109 63.0234 63.5484C62.9516 64.5406 62.975 64.55 63.0797 63.5765C63.035 63.1612 62.9735 62.7478 62.8953 62.3375C62.2891 58.8859 57.0578 60.3515 57.6531 63.7781C57.4172 62.4234 57.675 64.7109 57.7844 64.9922C58.2625 66.2 59.0203 66.7812 60.2969 66.9859C60.5375 65.2047 60.7812 63.4265 61.0156 61.6453C60.6333 61.6662 60.2519 61.7001 59.8719 61.7469C59.6344 63.5234 59.3922 65.3031 59.1484 67.0812C64.2137 66.8575 69.2316 66.0068 74.0875 64.5484C77.4375 63.5531 76.0047 58.3031 72.6406 59.3109Z" fill="#A87C4F"/>
<path d="M47 50.8141C51.4953 50.8016 55.9828 50.6672 60.4688 51C60.2266 49.2203 59.9875 47.4375 59.7437 45.6609C58.0203 46.075 56.2484 45.9938 54.4812 46.1266C51.4844 46.3469 50.7109 50.5734 53.7625 51.4656C55.3156 51.9234 57.0391 52.0547 58.5391 52.6859C58.7531 51.0297 58.9625 49.3719 59.1859 47.7188C56.1078 48.8578 53.0094 49.8875 49.8359 50.7109C47.9187 51.2078 47.1109 53.8781 48.6359 55.2547C49.3156 55.8688 49.9094 56.475 50.6828 56.9875V52.3C50.3078 52.5469 49.9344 52.7969 49.5609 53.0484C48.2047 53.9516 47.6016 56.1172 49.0094 57.3203C49.8156 58.0109 50.4922 58.7172 51.4281 59.2406L52.0781 54.2656C51.3938 54.5594 50.8656 54.8344 50.3172 55.3422C49.1109 56.4484 49.2938 58.8906 50.8656 59.6109C51.4656 59.8828 52.0031 60.1203 52.6438 60.2547C56.0625 60.9656 57.5172 55.7281 54.0906 55.0156C53.9281 54.9813 53.7719 54.9469 53.6141 54.9172L54.1625 59.1828C53.9531 59.2922 53.7391 59.4031 53.5266 59.5109C55.55 58.6641 56.4453 55.8016 54.175 54.5375C53.6563 54.2469 53.3062 53.8531 52.8562 53.4656C52.6687 54.8891 52.4953 56.3109 52.3047 57.7313C52.6812 57.4891 53.0531 57.2391 53.4281 56.9859C55.1703 55.8266 55.1797 53.45 53.4281 52.2828C53.1231 51.979 52.8083 51.6851 52.4844 51.4016C52.0797 52.9156 51.6812 54.4297 51.2797 55.9453C54.4531 55.125 57.5609 54.0891 60.6297 52.9484C62.5406 52.2469 63.6859 48.9984 61.2797 47.9844C59.2969 47.1453 57.2578 46.8141 55.2063 46.2109C54.9672 47.9938 54.7203 49.775 54.4797 51.5516C56.7438 51.3891 58.9719 51.4297 61.1922 50.8938C64.3172 50.1438 63.4 45.7703 60.4672 45.5547C55.9813 45.2219 51.4938 45.3531 46.9984 45.3656C43.4953 45.3875 43.4953 50.8203 46.9984 50.8141" fill="#A87C4F"/>
<path d="M66.6626 51.4625C70.9579 52.8235 74.9969 54.7734 78.9173 56.9891C79.6126 55.3328 80.311 53.675 81.0094 52.0203C79.9016 51.7156 78.8126 51.6625 77.6704 51.5469C76.4563 51.4188 75.3829 52.4766 75.0469 53.5391C75.5423 51.9438 77.4079 52.0094 76.1126 52.0469C75.4188 52.0485 74.7188 51.9766 74.036 51.9156C72.8157 51.8 71.6016 51.5891 70.3766 51.5469C67.9657 51.461 66.8298 54.5531 68.4548 56.1875C69.7141 57.4578 71.0579 57.8313 72.8048 57.9156C76.3157 58.1016 76.2954 52.6656 72.8048 52.4797C72.6423 52.4313 72.4688 52.3875 72.3032 52.3406C71.6594 53.886 71.0235 55.4328 70.3798 56.9844C73.3594 57.0828 79.0423 58.9985 80.2923 54.986C79.4188 55.6547 78.5485 56.3188 77.6735 56.9844C78.311 57.0203 78.9438 57.1156 79.5704 57.2594C82.5376 58.0766 84.3673 53.8203 81.661 52.2891C77.3454 49.8485 72.8438 47.7141 68.111 46.2172C64.7485 45.161 63.3266 50.4156 66.6626 51.4625Z" fill="#A87C4F"/>
<path d="M81.9219 61.5C81.3297 62.1703 80.711 62.7968 80.0266 63.3703C80.1938 63.2547 80.1422 63.2906 79.875 63.4859C79.7141 63.6 79.5516 63.7062 79.3875 63.8156C79.2192 63.9193 79.0483 64.0188 78.875 64.114C78.9204 64.0828 78.061 64.5156 78.4485 64.3515C77.0829 64.9218 76.1219 66.1281 76.5469 67.6968C76.9032 68.9843 78.5235 70.1703 79.8922 69.5953C82.2032 68.6281 84.1047 67.2187 85.7735 65.3437C86.7563 64.2359 86.861 62.5906 85.7735 61.4984C84.7657 60.5031 82.9047 60.3922 81.9219 61.4984" fill="#A87C4F"/>
<path d="M24.936 68.0141C26.375 68.0157 27.8016 68.2094 29.2329 68.3922C30.7079 68.575 31.9485 67.0125 31.9485 65.6735C31.9485 64.0469 30.7016 63.1391 29.2329 62.9516C27.8016 62.775 26.375 62.5922 24.936 62.5782C23.4469 62.5657 22.2141 63.8282 22.2141 65.3016C22.2141 66.7922 23.4469 68.0016 24.936 68.0141Z" fill="#A87C4F"/>
<path d="M36.4797 8.25462C28.2125 12.0765 24.761 19.0468 28.636 26.8062C30.9485 31.4359 34.625 35.4234 37.6157 39.7109C41.4313 45.1921 41.3578 50.2062 38.3266 55.9968C37.1453 58.2453 40.9172 60.2156 42.1047 57.9531C46.3891 49.7859 45.4828 43.3531 40.0782 35.8906C34.2719 27.8702 25.2375 17.8171 38.6907 11.6015C41.1985 10.4421 38.9813 7.09525 36.4813 8.24994" fill="#E6E7E8"/>
<path d="M50.8203 62.4751C54.7109 58.1267 55.6016 53.7283 53.6156 48.4501C51.4406 42.6751 47.1469 37.9798 47.0766 31.6486C47.0156 26.4064 49.9484 21.2986 51.9891 16.497C54.0828 11.5642 55.1297 6.62826 54.0063 1.40013C53.4844 -1.05143 49.2719 -0.013931 49.7828 2.42982C51.7906 11.8517 44.3594 20.0376 42.9266 29.0861C42.2625 33.3001 43.1688 37.422 45.1188 41.2798C48.1844 47.3376 53.2828 53.5173 47.7203 59.7345C45.9891 61.6736 49.0656 64.422 50.8203 62.472" fill="#E6E7E8"/>
<path d="M64.3125 56.4531C64.2609 52.1953 63.6281 48.3047 62.0656 44.275C61.3312 42.3938 60.0797 40.7438 59.3984 38.8359C58.714 36.925 60.075 34.6625 61.0609 33.0703C64.3719 27.7359 67.8609 23.5531 64.3031 17.4828C62.9953 15.2609 59.2203 17.2219 60.5109 19.4344C63.9859 25.3547 56.6844 30.1484 55.1703 35.6859C54.3859 38.5391 55.5187 41.0922 56.9187 43.6219C59.1812 47.7313 59.8703 51.9188 59.9219 56.4531C59.9625 58.9516 64.3437 58.9516 64.3125 56.4531Z" fill="#E6E7E8"/>
</g>
<defs>
<clipPath id="clip0_5_850">
<rect width="100" height="100" fill="white"/>
</clipPath>
</defs>
</svg>
