<svg width="100" height="100" viewBox="0 0 100 100" fill="none" xmlns="http://www.w3.org/2000/svg">
<path d="M94.4444 16.6667C88.8888 8.33332 69.4444 5.55554 49.9999 5.55554C30.5555 5.55554 8.33328 8.33332 5.5555 13.8889C0.258281 24.4833 2.77772 69.4444 2.77772 72.2222C2.77772 75 16.6666 75 16.6666 75V38.8889L19.4444 33.3333V97.2222C19.4444 97.2222 27.7777 100 49.9999 100C72.2222 100 80.5555 97.2222 80.5555 97.2222V33.3333L83.3333 38.8889V75C83.3333 75 97.2222 75 97.2222 72.2222C97.2222 69.4444 101.014 26.5222 94.4444 16.6667Z" fill="#E1E8ED"/>
<path d="M19.4444 75H16.6666V38.8889C16.6666 36.1112 19.4444 33.3334 19.4444 33.3334V75ZM83.3333 75H80.5555V33.3334C80.5555 33.3334 83.3333 36.1112 83.3333 38.8889V75Z" fill="#99AAB5"/>
<path d="M32.725 5.5556L50.1722 37.0667L66.6666 5.5556L49.6972 2.08337L32.725 5.5556Z" fill="#66757F"/>
<path d="M33.3334 1.73612C33.3334 1.73612 39.5834 0.216675 50 0.216675C60.4167 0.216675 66.6667 1.73612 66.6667 1.73612V8.33334C66.6667 8.33334 62.1528 5.55556 50 5.55556C37.8473 5.55556 33.3334 8.33334 33.3334 8.33334V1.73612Z" fill="#CCD6DD"/>
<path d="M19.4445 97.2222C19.4445 97.2222 68.7445 9.28053 68.7445 6.56108C68.7445 3.78331 66.6667 1.73608 66.6667 1.73608L19.4445 88.8889V97.2222Z" fill="#99AAB5"/>
<path d="M49.4944 40.8944C49.4944 40.8944 30.9055 9.28053 30.9055 6.56108C30.9055 3.78331 33.3333 1.73608 33.3333 1.73608L52.1138 36.6611L49.4944 40.8944Z" fill="#99AAB5"/>
<path d="M19.4445 61.1111C19.4445 61.1111 33.3333 66.6666 50 66.6666C66.6667 66.6666 80.5556 61.1111 80.5556 61.1111V69.4444C80.5556 69.4444 69.4445 75 50 75C30.5556 75 19.4445 69.4444 19.4445 69.4444V61.1111Z" fill="#292F33"/>
<path d="M58.3334 66.6667C58.3334 66.6667 52.7778 63.8889 50 63.8889C47.2222 63.8889 41.6667 66.6667 41.6667 66.6667C41.6667 66.6667 38.8889 66.6667 38.8889 69.4445C38.8889 72.2222 41.6667 75 41.6667 75C41.6667 75 47.2222 77.7778 50 77.7778C52.7778 77.7778 58.3334 75 58.3334 75C58.3334 75 61.1111 72.2222 61.1111 69.4445C61.1111 66.6667 58.3334 66.6667 58.3334 66.6667Z" fill="#292F33"/>
<path d="M33.3334 91.6666L41.6667 94.4444C41.6667 94.4444 44.4445 80.5555 50 75L44.4445 66.6666C44.4445 66.6666 36.1112 77.7777 33.3334 91.6666ZM66.6667 91.6666L58.3334 94.4444C58.3334 94.4444 55.5556 80.5555 50 75L55.5556 66.6666C55.5556 66.6666 63.8889 77.7777 66.6667 91.6666Z" fill="#292F33"/>
</svg>
