<svg width="32" height="32" viewBox="0 0 32 32" fill="none" xmlns="http://www.w3.org/2000/svg">
<path d="M11.61 29.9201C11.4053 29.8337 11.2353 29.6817 11.1266 29.4879C11.018 29.2942 10.9769 29.0698 11.01 28.8501L12.83 17.0001H7.99998C7.84685 17.0042 7.69483 16.9731 7.55563 16.9092C7.41644 16.8452 7.29379 16.7502 7.19716 16.6313C7.10053 16.5124 7.0325 16.373 6.99831 16.2237C6.96412 16.0743 6.96469 15.9192 6.99998 15.7701L9.99998 2.77011C10.0528 2.54638 10.181 2.34767 10.3632 2.20743C10.5453 2.06718 10.7702 1.99397 11 2.00011H21C21.1494 1.99961 21.297 2.03258 21.432 2.09661C21.5669 2.16063 21.6859 2.25409 21.78 2.37011C21.8754 2.48744 21.943 2.6249 21.9777 2.77213C22.0123 2.91936 22.0131 3.07253 21.98 3.22011L20.25 11.0001H25C25.1874 10.9997 25.3712 11.052 25.5303 11.1511C25.6894 11.2501 25.8175 11.3918 25.9 11.5601C25.9716 11.7217 25.9992 11.8993 25.9799 12.075C25.9606 12.2506 25.895 12.418 25.79 12.5601L12.79 29.5601C12.7021 29.6904 12.5848 29.7981 12.4476 29.8745C12.3103 29.951 12.157 29.994 12 30.0001C11.8662 29.9976 11.734 29.9705 11.61 29.9201Z" fill="black"/>
</svg>
