<svg width="97" height="97" viewBox="0 0 97 97" fill="none" xmlns="http://www.w3.org/2000/svg">
<path d="M48.5 93.9688C73.6117 93.9688 93.9688 73.6117 93.9688 48.5C93.9688 23.3883 73.6117 3.03125 48.5 3.03125C23.3883 3.03125 3.03125 23.3883 3.03125 48.5C3.03125 73.6117 23.3883 93.9688 48.5 93.9688Z" fill="#3E4347"/>
<path d="M9.54851 27.2813L5.45632 23.1891C2.27351 20.0063 2.27351 14.8531 5.45632 11.8219L11.8219 5.45626C15.0048 2.27345 20.1579 2.27345 23.1891 5.45626L27.2813 9.54845L22.5829 14.2469L18.4907 10.1547C18.036 9.70001 17.1266 9.70001 16.5204 10.1547L10.1548 16.5203C9.70007 16.975 9.70007 17.8844 10.1548 18.4906L14.2469 22.5828L9.54851 27.2813Z" fill="#3E4347"/>
<path d="M87.4516 69.7188L91.5438 73.8109C94.7266 76.9938 94.7266 82.1469 91.5438 85.1781L85.1781 91.5438C81.9953 94.7266 76.8422 94.7266 73.8109 91.5438L69.7188 87.4516L74.4172 82.7531L78.5094 86.8453C78.9641 87.3 79.8734 87.3 80.4797 86.8453L86.8453 80.4797C87.3 80.025 87.3 79.1156 86.8453 78.5094L82.7531 74.4172L87.4516 69.7188Z" fill="#3E4347"/>
<path d="M48.5 83.9656C68.0872 83.9656 83.9657 68.0871 83.9657 48.5C83.9657 28.9129 68.0872 13.0344 48.5 13.0344C28.9129 13.0344 13.0344 28.9129 13.0344 48.5C13.0344 68.0871 28.9129 83.9656 48.5 83.9656Z" fill="#F2B200"/>
<path d="M60.0188 17.2781C52.4406 13.3375 40.4672 20.9156 41.8313 27.2812C43.1953 33.6469 58.8063 38.1937 63.05 47.1359C67.2938 56.0781 69.2641 58.9578 76.8422 52.8953C84.2688 46.6812 87.7547 31.9797 60.0188 17.2781Z" fill="#B47D56"/>
<path d="M58.8063 20.9156C63.9594 20.9156 55.6235 23.7953 50.7735 28.0391C48.3485 30.161 49.4094 20.9156 58.8063 20.9156Z" fill="#89664C"/>
<path d="M69.8703 28.3422C75.0235 28.3422 66.6875 31.2219 61.686 35.4657C59.4125 37.436 60.4735 28.3422 69.8703 28.3422Z" fill="#89664C"/>
<path d="M76.6907 39.7094C81.8438 39.7094 73.5079 42.5891 68.5063 46.8328C66.2329 48.8032 67.4454 39.7094 76.6907 39.7094Z" fill="#89664C"/>
<path d="M16.2172 57.5938C13.3375 50.3188 22.886 41.3766 29.1 43.65C35.4657 45.9235 37.7391 60.1704 46.075 65.475C54.411 70.6282 57.1391 72.9016 49.8641 78.3578C42.4375 83.8141 26.9782 84.1172 16.2172 57.5938Z" fill="#B47D56"/>
<path d="M20.3093 59.5641C19.5515 63.9594 23.6437 57.2907 28.7968 53.8047C31.2218 52.1375 21.6734 51.5313 20.3093 59.5641Z" fill="#89664C"/>
<path d="M25.4625 68.8094C24.7047 73.2047 28.7969 66.536 33.95 63.05C36.375 61.3828 26.8266 60.7766 25.4625 68.8094Z" fill="#89664C"/>
<path d="M34.5563 75.6297C33.7985 80.025 37.8907 73.3563 43.0438 69.8704C45.4688 68.2032 36.0719 67.4454 34.5563 75.6297Z" fill="#89664C"/>
<path d="M38.8 19.7031C35.4656 16.5203 35.4656 16.5203 25.7656 26.675C20.4609 32.2828 17.7328 38.1938 19.5515 39.8609C22.8859 43.0438 22.8859 43.0438 32.4343 32.8891C37.8906 27.4328 40.6187 21.5219 38.8 19.7031Z" fill="#699635"/>
<path d="M78.0547 60.9281C75.3266 57.2906 75.3266 57.2906 64.2625 65.1719C58.0484 69.5672 54.4109 74.7203 55.775 76.6906C58.5031 80.3281 58.5031 80.3281 69.5672 72.4469C75.7812 68.0515 79.5703 62.8984 78.0547 60.9281Z" fill="#699635"/>
<path d="M58.5031 50.3188C60.4734 45.7719 60.4734 45.7719 47.1359 39.5578C39.7093 36.0719 32.889 35.3141 31.8281 37.7391C29.8578 42.286 29.8577 42.286 43.1952 48.5C50.4702 51.986 57.2906 52.7438 58.5031 50.3188Z" fill="#699635"/>
<path d="M65.9297 57.2906C66.2328 53.9563 63.5047 55.6234 58.5031 55.4719C53.5015 55.1688 54.8656 59.1094 55.1687 62.2922C55.3203 65.475 57.2906 62.8984 64.5656 63.05C67.2937 63.2016 65.475 60.625 65.9297 57.2906Z" fill="#ED4C5C"/>
<path d="M45.3172 51.6828C41.5282 50.3188 42.7407 52.8953 40.7703 56.5328C38.8 60.1703 43.9532 60.3219 47.7422 61.2313C51.5313 62.1406 49.1063 59.8672 51.6828 54.5625C52.7438 52.5922 49.1063 53.0469 45.3172 51.6828Z" fill="#FFCE31"/>
<path d="M37.1328 28.6453C33.3437 27.2812 34.5562 29.8578 32.5859 33.4953C30.6156 37.1328 35.7687 37.2843 39.5578 38.1937C43.3468 39.1031 40.9218 36.8297 43.4984 31.525C44.5593 29.5547 40.9218 30.0093 37.1328 28.6453Z" fill="#ED4C5C"/>
<path d="M21.2187 39.7094C17.4296 38.3453 18.6421 40.9219 16.6718 44.5594C14.7015 48.1969 19.8546 48.3484 23.6437 49.2578C27.4328 50.1672 25.0078 47.8937 27.5843 42.5891C28.6453 40.4672 25.0078 40.9219 21.2187 39.7094Z" fill="#FFCE31"/>
</svg>
