<svg width="276" height="310" viewBox="0 0 276 310" fill="none" xmlns="http://www.w3.org/2000/svg">
<path fill-rule="evenodd" clip-rule="evenodd" d="M142.393 6.57312C169.897 16.2523 181.531 47.2998 201.429 68.5678C215.819 83.9485 231.42 96.8157 243.169 114.287C257.002 134.854 277.394 154.615 275.925 179.337C274.444 204.27 250.194 220.452 235.653 240.788C219.349 263.59 211.289 295.355 185.331 306.038C159.083 316.84 129.958 302.918 102.536 295.573C74.4714 288.056 39.6581 286.984 23.7191 262.751C7.68889 238.378 28.6114 205.953 24.6011 177.08C20.6225 148.437 -3.75776 124.161 0.496308 95.5567C5.19981 63.9304 21.5932 31.8485 48.7311 14.8303C75.813 -2.15287 112.226 -4.04341 142.393 6.57312Z" fill="#F2F6FE"/>
</svg>
