<svg width="27" height="27" viewBox="0 0 27 27" fill="none" xmlns="http://www.w3.org/2000/svg">
<path d="M24.3344 18.5071H8.63271L9.42109 16.9014L22.5203 16.8776C22.9633 16.8776 23.343 16.5612 23.4221 16.1235L25.2361 5.96953C25.2836 5.70322 25.2124 5.429 25.0384 5.2207C24.9524 5.11819 24.8451 5.03561 24.724 4.9787C24.6029 4.92178 24.4708 4.8919 24.337 4.89111L7.67295 4.83574L7.53057 4.16602C7.44092 3.73887 7.05596 3.42773 6.61826 3.42773H2.54453C2.29768 3.42773 2.06093 3.5258 1.88638 3.70035C1.71183 3.8749 1.61377 4.11164 1.61377 4.3585C1.61377 4.60535 1.71183 4.84209 1.88638 5.01664C2.06093 5.1912 2.29768 5.28926 2.54453 5.28926H5.86416L6.48643 8.24766L8.01836 15.6647L6.04609 18.8842C5.94367 19.0224 5.88198 19.1866 5.868 19.358C5.85402 19.5295 5.88831 19.7015 5.96699 19.8545C6.1252 20.1683 6.44424 20.366 6.79756 20.366H8.45342C8.10041 20.8349 7.90974 21.406 7.91025 21.9929C7.91025 23.4853 9.12314 24.6981 10.6155 24.6981C12.1079 24.6981 13.3208 23.4853 13.3208 21.9929C13.3208 21.4049 13.1257 20.8327 12.7776 20.366H17.0254C16.6724 20.8349 16.4817 21.406 16.4822 21.9929C16.4822 23.4853 17.6951 24.6981 19.1875 24.6981C20.6799 24.6981 21.8928 23.4853 21.8928 21.9929C21.8928 21.4049 21.6977 20.8327 21.3496 20.366H24.337C24.8485 20.366 25.2678 19.9494 25.2678 19.4353C25.2662 19.1887 25.1672 18.9527 24.9924 18.7788C24.8175 18.6049 24.581 18.5073 24.3344 18.5071ZM8.06055 6.6709L23.2428 6.721L21.7557 15.0478L9.82978 15.0688L8.06055 6.6709ZM10.6155 22.8261C10.1567 22.8261 9.78232 22.4517 9.78232 21.9929C9.78232 21.5341 10.1567 21.1597 10.6155 21.1597C11.0743 21.1597 11.4487 21.5341 11.4487 21.9929C11.4487 22.2139 11.3609 22.4258 11.2047 22.582C11.0484 22.7383 10.8365 22.8261 10.6155 22.8261ZM19.1875 22.8261C18.7287 22.8261 18.3543 22.4517 18.3543 21.9929C18.3543 21.5341 18.7287 21.1597 19.1875 21.1597C19.6463 21.1597 20.0207 21.5341 20.0207 21.9929C20.0207 22.2139 19.9329 22.4258 19.7767 22.582C19.6204 22.7383 19.4085 22.8261 19.1875 22.8261Z" fill="white"/>
</svg>
